<svg width="417" height="220" viewBox="0 0 417 220" fill="none" xmlns="http://www.w3.org/2000/svg">
<path d="M66.8828 84.875H33.0625L27.1562 104H0.789062L38.3359 1.625H61.5391L99.3672 104H72.8594L66.8828 84.875ZM38.9688 65.8203H60.9766L49.9375 30.3125L38.9688 65.8203ZM102.812 65.1875C102.812 53.0938 105.438 43.625 110.688 36.7812C115.938 29.9375 123.18 26.5156 132.414 26.5156C140.195 26.5156 146.43 29.7031 151.117 36.0781L152.805 27.9219H173.336V133.25H149.57V97.6719C145.023 102.828 139.258 105.406 132.273 105.406C123.273 105.406 116.102 101.938 110.758 95C105.461 88.0156 102.812 78.0781 102.812 65.1875ZM126.508 66.6641C126.508 80.3047 130.445 87.125 138.32 87.125C143.758 87.125 147.508 85.0625 149.57 80.9375V50.8438C147.602 46.8125 143.898 44.7969 138.461 44.7969C131.102 44.7969 127.141 50.6797 126.578 62.4453L126.508 66.6641ZM232.117 95.7734C227.102 102.195 220.328 105.406 211.797 105.406C203.453 105.406 197.125 102.992 192.812 98.1641C188.547 93.2891 186.414 86.3047 186.414 77.2109V27.9219H210.109V77.3516C210.109 83.8672 213.273 87.125 219.602 87.125C225.039 87.125 228.906 85.1797 231.203 81.2891V27.9219H255.039V104H232.82L232.117 95.7734ZM310.938 104C310.094 102.453 309.344 100.18 308.688 97.1797C304.328 102.664 298.234 105.406 290.406 105.406C283.234 105.406 277.141 103.25 272.125 98.9375C267.109 94.5781 264.602 89.1172 264.602 82.5547C264.602 74.3047 267.648 68.0703 273.742 63.8516C279.836 59.6328 288.695 57.5234 300.32 57.5234H307.633V53.5156C307.633 46.5312 304.609 43.0391 298.562 43.0391C292.938 43.0391 290.125 45.8047 290.125 51.3359H266.43C266.43 43.9766 269.547 38 275.781 33.4062C282.062 28.8125 290.055 26.5156 299.758 26.5156C309.461 26.5156 317.125 28.8828 322.75 33.6172C328.375 38.3516 331.258 44.8438 331.398 53.0938V86.7734C331.492 93.7578 332.57 99.1016 334.633 102.805V104H310.938ZM296.102 88.5312C299.055 88.5312 301.492 87.8984 303.414 86.6328C305.383 85.3672 306.789 83.9375 307.633 82.3438V70.1797H300.742C292.492 70.1797 288.367 73.8828 288.367 81.2891C288.367 83.4453 289.094 85.2031 290.547 86.5625C292 87.875 293.852 88.5312 296.102 88.5312Z" fill="#1F49DB"/>
<path d="M94.3047 214H69.7656V171.25H33.4141V214H8.73438V111.625H33.4141V152.266H69.7656V111.625H94.3047V214ZM105.906 175.258C105.906 167.664 107.383 160.914 110.336 155.008C113.289 149.055 117.531 144.484 123.062 141.297C128.594 138.109 135.086 136.516 142.539 136.516C153.93 136.516 162.906 140.055 169.469 147.133C176.031 154.164 179.312 163.75 179.312 175.891V176.734C179.312 188.594 176.008 198.016 169.398 205C162.836 211.938 153.93 215.406 142.68 215.406C131.852 215.406 123.156 212.172 116.594 205.703C110.031 199.188 106.492 190.375 105.977 179.266L105.906 175.258ZM129.602 176.734C129.602 183.766 130.703 188.922 132.906 192.203C135.109 195.484 138.367 197.125 142.68 197.125C151.117 197.125 155.43 190.633 155.617 177.648V175.258C155.617 161.617 151.258 154.797 142.539 154.797C134.617 154.797 130.328 160.68 129.672 172.445L129.602 176.734ZM235.07 205.773C230.055 212.195 223.281 215.406 214.75 215.406C206.406 215.406 200.078 212.992 195.766 208.164C191.5 203.289 189.367 196.305 189.367 187.211V137.922H213.062V187.352C213.062 193.867 216.227 197.125 222.555 197.125C227.992 197.125 231.859 195.18 234.156 191.289V137.922H257.992V214H235.773L235.07 205.773ZM310.867 192.625C310.867 190.609 309.812 188.992 307.703 187.773C305.594 186.555 301.586 185.289 295.68 183.977C289.773 182.664 284.898 180.953 281.055 178.844C277.211 176.688 274.281 174.086 272.266 171.039C270.25 167.992 269.242 164.5 269.242 160.562C269.242 153.578 272.125 147.836 277.891 143.336C283.656 138.789 291.203 136.516 300.531 136.516C310.562 136.516 318.625 138.789 324.719 143.336C330.812 147.883 333.859 153.859 333.859 161.266H310.094C310.094 155.172 306.883 152.125 300.461 152.125C297.977 152.125 295.891 152.828 294.203 154.234C292.516 155.594 291.672 157.305 291.672 159.367C291.672 161.477 292.703 163.188 294.766 164.5C296.828 165.812 300.109 166.891 304.609 167.734C309.156 168.578 313.141 169.586 316.562 170.758C328 174.695 333.719 181.75 333.719 191.922C333.719 198.859 330.625 204.508 324.438 208.867C318.297 213.227 310.328 215.406 300.531 215.406C294.016 215.406 288.203 214.234 283.094 211.891C277.984 209.547 274 206.359 271.141 202.328C268.281 198.297 266.852 194.055 266.852 189.602H289C289.094 193.117 290.266 195.695 292.516 197.336C294.766 198.93 297.648 199.727 301.164 199.727C304.398 199.727 306.812 199.07 308.406 197.758C310.047 196.445 310.867 194.734 310.867 192.625ZM381.672 215.406C370 215.406 360.555 211.938 353.336 205C346.117 198.016 342.508 188.945 342.508 177.789V175.82C342.508 168.039 343.938 161.172 346.797 155.219C349.703 149.266 353.922 144.672 359.453 141.438C364.984 138.156 371.547 136.516 379.141 136.516C389.828 136.516 398.266 139.844 404.453 146.5C410.641 153.109 413.734 162.344 413.734 174.203V183.414H366.625C367.469 187.68 369.32 191.031 372.18 193.469C375.039 195.906 378.742 197.125 383.289 197.125C390.789 197.125 396.648 194.5 400.867 189.25L411.695 202.047C408.742 206.125 404.547 209.383 399.109 211.82C393.719 214.211 387.906 215.406 381.672 215.406ZM379 154.797C372.062 154.797 367.938 159.391 366.625 168.578H390.531V166.75C390.625 162.953 389.664 160.023 387.648 157.961C385.633 155.852 382.75 154.797 379 154.797Z" fill="black"/>
</svg>
