<svg width="42" height="41" viewBox="0 0 42 41" fill="none" xmlns="http://www.w3.org/2000/svg">
<g filter="url(#filter0_b)">
<rect width="42" height="41" rx="20.5" fill="#6F6F6F" fill-opacity="0.6"/>
<rect x="0.5" y="0.5" width="41" height="40" rx="20" stroke="#1F49DB"/>
</g>
<path d="M21.7071 7.29289C21.3166 6.90237 20.6834 6.90237 20.2929 7.29289L13.9289 13.6569C13.5384 14.0474 13.5384 14.6805 13.9289 15.0711C14.3195 15.4616 14.9526 15.4616 15.3431 15.0711L21 9.41421L26.6569 15.0711C27.0474 15.4616 27.6805 15.4616 28.0711 15.0711C28.4616 14.6805 28.4616 14.0474 28.0711 13.6569L21.7071 7.29289ZM22 33L22 8L20 8L20 33L22 33Z" fill="white"/>
<defs>
<filter id="filter0_b" x="-14" y="-14" width="70" height="69" filterUnits="userSpaceOnUse" color-interpolation-filters="sRGB">
<feFlood flood-opacity="0" result="BackgroundImageFix"/>
<feGaussianBlur in="BackgroundImage" stdDeviation="7"/>
<feComposite in2="SourceAlpha" operator="in" result="effect1_backgroundBlur"/>
<feBlend mode="normal" in="SourceGraphic" in2="effect1_backgroundBlur" result="shape"/>
</filter>
</defs>
</svg>
