<svg width="26" height="25" viewBox="0 0 26 25" fill="none" xmlns="http://www.w3.org/2000/svg">
<path d="M13.1614 8.19237C10.9045 8.19237 9.06267 10.0342 9.06267 12.2912C9.06267 14.5481 10.9045 16.39 13.1614 16.39C15.4183 16.39 17.2601 14.5481 17.2601 12.2912C17.2601 10.0342 15.4183 8.19237 13.1614 8.19237ZM25.4545 12.2912C25.4545 10.5938 25.4699 8.91188 25.3745 7.21763C25.2792 5.24972 24.8303 3.50319 23.3913 2.06415C21.9492 0.622038 20.2058 0.176182 18.2379 0.0808611C16.5406 -0.0144598 14.8587 0.000914602 13.1645 0.000914602C11.4672 0.000914602 9.78525 -0.0144598 8.09103 0.0808611C6.12315 0.176182 4.37666 0.625113 2.93765 2.06415C1.49556 3.50627 1.04971 5.24972 0.954395 7.21763C0.859076 8.91496 0.87445 10.5969 0.87445 12.2912C0.87445 13.9854 0.859076 15.6704 0.954395 17.3647C1.04971 19.3326 1.49864 21.0791 2.93765 22.5182C4.37973 23.9603 6.12315 24.4061 8.09103 24.5015C9.78833 24.5968 11.4702 24.5814 13.1645 24.5814C14.8618 24.5814 16.5437 24.5968 18.2379 24.5015C20.2058 24.4061 21.9523 23.9572 23.3913 22.5182C24.8334 21.0761 25.2792 19.3326 25.3745 17.3647C25.4729 15.6704 25.4545 13.9885 25.4545 12.2912ZM13.1614 18.5977C9.67148 18.5977 6.85496 15.7811 6.85496 12.2912C6.85496 8.80119 9.67148 5.98461 13.1614 5.98461C16.6513 5.98461 19.4678 8.80119 19.4678 12.2912C19.4678 15.7811 16.6513 18.5977 13.1614 18.5977ZM19.7261 7.19918C18.9113 7.19918 18.2533 6.54116 18.2533 5.72632C18.2533 4.91148 18.9113 4.25346 19.7261 4.25346C20.5409 4.25346 21.199 4.91148 21.199 5.72632C21.1992 5.91981 21.1613 6.11144 21.0873 6.29025C21.0134 6.46905 20.9049 6.63152 20.7681 6.76833C20.6313 6.90515 20.4688 7.01363 20.29 7.08756C20.1112 7.16149 19.9196 7.19943 19.7261 7.19918Z" fill="black"/>
</svg>
