<svg width="70" height="37" viewBox="0 0 70 37" fill="none" xmlns="http://www.w3.org/2000/svg">
<path d="M11.9805 14.8125H6.34375L5.35938 18H0.964844L7.22266 0.9375H11.0898L17.3945 18H12.9766L11.9805 14.8125ZM7.32812 11.6367H10.9961L9.15625 5.71875L7.32812 11.6367ZM17.9688 11.5312C17.9688 9.51562 18.4062 7.9375 19.2812 6.79688C20.1562 5.65625 21.3633 5.08594 22.9023 5.08594C24.1992 5.08594 25.2383 5.61719 26.0195 6.67969L26.3008 5.32031H29.7227V22.875H25.7617V16.9453C25.0039 17.8047 24.043 18.2344 22.8789 18.2344C21.3789 18.2344 20.1836 17.6562 19.293 16.5C18.4102 15.3359 17.9688 13.6797 17.9688 11.5312ZM21.918 11.7773C21.918 14.0508 22.5742 15.1875 23.8867 15.1875C24.793 15.1875 25.418 14.8438 25.7617 14.1562V9.14062C25.4336 8.46875 24.8164 8.13281 23.9102 8.13281C22.6836 8.13281 22.0234 9.11328 21.9297 11.0742L21.918 11.7773ZM39.5195 16.6289C38.6836 17.6992 37.5547 18.2344 36.1328 18.2344C34.7422 18.2344 33.6875 17.832 32.9688 17.0273C32.2578 16.2148 31.9023 15.0508 31.9023 13.5352V5.32031H35.8516V13.5586C35.8516 14.6445 36.3789 15.1875 37.4336 15.1875C38.3398 15.1875 38.9844 14.8633 39.3672 14.2148V5.32031H43.3398V18H39.6367L39.5195 16.6289ZM52.6562 18C52.5156 17.7422 52.3906 17.3633 52.2812 16.8633C51.5547 17.7773 50.5391 18.2344 49.2344 18.2344C48.0391 18.2344 47.0234 17.875 46.1875 17.1562C45.3516 16.4297 44.9336 15.5195 44.9336 14.4258C44.9336 13.0508 45.4414 12.0117 46.457 11.3086C47.4727 10.6055 48.9492 10.2539 50.8867 10.2539H52.1055V9.58594C52.1055 8.42188 51.6016 7.83984 50.5938 7.83984C49.6562 7.83984 49.1875 8.30078 49.1875 9.22266H45.2383C45.2383 7.99609 45.7578 7 46.7969 6.23438C47.8438 5.46875 49.1758 5.08594 50.793 5.08594C52.4102 5.08594 53.6875 5.48047 54.625 6.26953C55.5625 7.05859 56.043 8.14062 56.0664 9.51562V15.1289C56.082 16.293 56.2617 17.1836 56.6055 17.8008V18H52.6562ZM50.1836 15.4219C50.6758 15.4219 51.082 15.3164 51.4023 15.1055C51.7305 14.8945 51.9648 14.6562 52.1055 14.3906V12.3633H50.957C49.582 12.3633 48.8945 12.9805 48.8945 14.2148C48.8945 14.5742 49.0156 14.8672 49.2578 15.0938C49.5 15.3125 49.8086 15.4219 50.1836 15.4219Z" fill="#1F49DB"/>
<path d="M16.5508 36H12.4609V28.875H6.40234V36H2.28906V18.9375H6.40234V25.7109H12.4609V18.9375H16.5508V36ZM18.4844 29.543C18.4844 28.2773 18.7305 27.1523 19.2227 26.168C19.7148 25.1758 20.4219 24.4141 21.3438 23.8828C22.2656 23.3516 23.3477 23.0859 24.5898 23.0859C26.4883 23.0859 27.9844 23.6758 29.0781 24.8555C30.1719 26.0273 30.7188 27.625 30.7188 29.6484V29.7891C30.7188 31.7656 30.168 33.3359 29.0664 34.5C27.9727 35.6562 26.4883 36.2344 24.6133 36.2344C22.8086 36.2344 21.3594 35.6953 20.2656 34.6172C19.1719 33.5312 18.582 32.0625 18.4961 30.2109L18.4844 29.543ZM22.4336 29.7891C22.4336 30.9609 22.6172 31.8203 22.9844 32.3672C23.3516 32.9141 23.8945 33.1875 24.6133 33.1875C26.0195 33.1875 26.7383 32.1055 26.7695 29.9414V29.543C26.7695 27.2695 26.043 26.1328 24.5898 26.1328C23.2695 26.1328 22.5547 27.1133 22.4453 29.0742L22.4336 29.7891ZM40.0117 34.6289C39.1758 35.6992 38.0469 36.2344 36.625 36.2344C35.2344 36.2344 34.1797 35.832 33.4609 35.0273C32.75 34.2148 32.3945 33.0508 32.3945 31.5352V23.3203H36.3438V31.5586C36.3438 32.6445 36.8711 33.1875 37.9258 33.1875C38.832 33.1875 39.4766 32.8633 39.8594 32.2148V23.3203H43.832V36H40.1289L40.0117 34.6289ZM52.6445 32.4375C52.6445 32.1016 52.4688 31.832 52.1172 31.6289C51.7656 31.4258 51.0977 31.2148 50.1133 30.9961C49.1289 30.7773 48.3164 30.4922 47.6758 30.1406C47.0352 29.7812 46.5469 29.3477 46.2109 28.8398C45.875 28.332 45.707 27.75 45.707 27.0938C45.707 25.9297 46.1875 24.9727 47.1484 24.2227C48.1094 23.4648 49.3672 23.0859 50.9219 23.0859C52.5938 23.0859 53.9375 23.4648 54.9531 24.2227C55.9688 24.9805 56.4766 25.9766 56.4766 27.2109H52.5156C52.5156 26.1953 51.9805 25.6875 50.9102 25.6875C50.4961 25.6875 50.1484 25.8047 49.8672 26.0391C49.5859 26.2656 49.4453 26.5508 49.4453 26.8945C49.4453 27.2461 49.6172 27.5312 49.9609 27.75C50.3047 27.9688 50.8516 28.1484 51.6016 28.2891C52.3594 28.4297 53.0234 28.5977 53.5938 28.793C55.5 29.4492 56.4531 30.625 56.4531 32.3203C56.4531 33.4766 55.9375 34.418 54.9062 35.1445C53.8828 35.8711 52.5547 36.2344 50.9219 36.2344C49.8359 36.2344 48.8672 36.0391 48.0156 35.6484C47.1641 35.2578 46.5 34.7266 46.0234 34.0547C45.5469 33.3828 45.3086 32.6758 45.3086 31.9336H49C49.0156 32.5195 49.2109 32.9492 49.5859 33.2227C49.9609 33.4883 50.4414 33.6211 51.0273 33.6211C51.5664 33.6211 51.9688 33.5117 52.2344 33.293C52.5078 33.0742 52.6445 32.7891 52.6445 32.4375ZM64.4453 36.2344C62.5 36.2344 60.9258 35.6562 59.7227 34.5C58.5195 33.3359 57.918 31.8242 57.918 29.9648V29.6367C57.918 28.3398 58.1562 27.1953 58.6328 26.2031C59.1172 25.2109 59.8203 24.4453 60.7422 23.9062C61.6641 23.3594 62.7578 23.0859 64.0234 23.0859C65.8047 23.0859 67.2109 23.6406 68.2422 24.75C69.2734 25.8516 69.7891 27.3906 69.7891 29.3672V30.9023H61.9375C62.0781 31.6133 62.3867 32.1719 62.8633 32.5781C63.3398 32.9844 63.957 33.1875 64.7148 33.1875C65.9648 33.1875 66.9414 32.75 67.6445 31.875L69.4492 34.0078C68.957 34.6875 68.2578 35.2305 67.3516 35.6367C66.4531 36.0352 65.4844 36.2344 64.4453 36.2344ZM64 26.1328C62.8438 26.1328 62.1562 26.8984 61.9375 28.4297H65.9219V28.125C65.9375 27.4922 65.7773 27.0039 65.4414 26.6602C65.1055 26.3086 64.625 26.1328 64 26.1328Z" fill="white"/>
</svg>
