<svg width="26" height="25" viewBox="0 0 26 25" fill="none" xmlns="http://www.w3.org/2000/svg">
<path fill-rule="evenodd" clip-rule="evenodd" d="M25.3293 12.2912C25.3293 19.079 19.8259 24.5823 13.0381 24.5823C6.25032 24.5823 0.746948 19.079 0.746948 12.2912C0.746948 5.50337 6.25032 0 13.0381 0C19.8259 0 25.3293 5.50337 25.3293 12.2912ZM13.4785 9.07395C12.2832 9.57072 9.89362 10.6001 6.31075 12.1611C5.72897 12.3926 5.42374 12.6189 5.39608 12.8402C5.34897 13.2151 5.81808 13.3625 6.45517 13.5623C6.54223 13.5899 6.63237 13.6176 6.72455 13.6483C7.35243 13.8521 8.19642 14.0908 8.6348 14.1C9.03324 14.1082 9.47777 13.9443 9.9684 13.6084C13.3157 11.3478 15.0436 10.2058 15.1522 10.1812C15.229 10.1638 15.3355 10.1412 15.4072 10.2058C15.4789 10.2693 15.4718 10.3901 15.4646 10.4229C15.4175 10.6206 13.5799 12.3301 12.6274 13.2151C12.3303 13.4906 12.1204 13.6862 12.0774 13.7313C11.9811 13.8306 11.8827 13.9259 11.7885 14.017C11.2047 14.5783 10.7683 15.0003 11.8131 15.6886C12.315 16.0195 12.7165 16.293 13.117 16.5654C13.5543 16.8635 13.9907 17.1605 14.5561 17.5313C14.6995 17.6255 14.8367 17.7228 14.9709 17.8181C15.48 18.1817 15.9378 18.5074 16.5032 18.4562C16.831 18.4255 17.171 18.1172 17.3431 17.1964C17.7497 15.0188 18.5507 10.3031 18.7361 8.35902C18.7474 8.19761 18.7405 8.03544 18.7156 7.87556C18.7007 7.74644 18.6378 7.62762 18.5394 7.54268C18.393 7.42284 18.1656 7.39723 18.0632 7.39928C17.6012 7.40748 16.8924 7.65432 13.4785 9.07395Z" fill="black"/>
</svg>
