<svg width="22" height="25" viewBox="0 0 22 25" fill="none" xmlns="http://www.w3.org/2000/svg">
<path d="M11.8389 0.0207424C13.1795 0 14.5124 0.0122918 15.8437 0C15.9244 1.56798 16.4883 3.16514 17.6361 4.27371C18.7815 5.40994 20.4017 5.93004 21.9781 6.10596V10.2306C20.5008 10.1822 19.0166 9.87494 17.676 9.23884C17.0921 8.97457 16.5482 8.63424 16.0158 8.28622C16.0089 11.2793 16.0281 14.2685 15.9966 17.2493C15.9167 18.6813 15.4443 20.1063 14.6115 21.2864C13.2717 23.2507 10.9462 24.5314 8.55777 24.5714C7.09274 24.6551 5.62925 24.2556 4.38086 23.5196C2.31199 22.2997 0.85618 20.0664 0.644146 17.6695C0.617438 17.1619 0.613337 16.6533 0.631854 16.1453C0.816231 14.1963 1.78037 12.3318 3.2769 11.0634C4.97317 9.58608 7.34933 8.88238 9.57415 9.29876C9.5949 10.816 9.53421 12.3318 9.53421 13.849C8.51783 13.5202 7.33013 13.6124 6.44204 14.2293C5.7923 14.6574 5.30129 15.2871 5.04462 16.0216C4.83258 16.541 4.89327 17.1179 4.90557 17.6695C5.1491 19.3504 6.76547 20.7632 8.49094 20.6103C9.63484 20.598 10.7311 19.9343 11.3273 18.9624C11.5201 18.6221 11.736 18.2741 11.7475 17.8738C11.8481 16.0416 11.8082 14.217 11.8205 12.3848C11.8289 8.2555 11.8082 4.13773 11.8397 0.0215107L11.8389 0.0207424Z" fill="black"/>
</svg>
