<svg width="25" height="25" viewBox="0 0 25 25" fill="none" xmlns="http://www.w3.org/2000/svg">
<path d="M12.2912 0C5.50286 0 0 5.50286 0 12.2912C0 19.0795 5.50286 24.5823 12.2912 24.5823C19.0795 24.5823 24.5823 19.0795 24.5823 12.2912C24.5823 5.50286 19.0795 0 12.2912 0ZM17.0181 13.8673C17.0181 13.8673 18.1051 14.9402 18.3727 15.4382C18.3804 15.4485 18.3843 15.4587 18.3868 15.4638C18.4956 15.6469 18.5213 15.789 18.4675 15.8953C18.3779 16.072 18.0706 16.159 17.9656 16.1667H16.0451C15.9119 16.1667 15.6328 16.1322 15.2948 15.8991C15.0349 15.7173 14.7788 15.419 14.5292 15.1284C14.1566 14.6956 13.834 14.3218 13.5088 14.3218C13.4675 14.3217 13.4264 14.3282 13.3871 14.341C13.1413 14.4204 12.8263 14.7712 12.8263 15.7058C12.8263 15.9977 12.5959 16.1654 12.4333 16.1654H11.5537C11.2541 16.1654 9.69338 16.0605 8.31062 14.6022C6.61802 12.8161 5.09443 9.23374 5.08163 9.20045C4.9856 8.96871 5.18405 8.84452 5.40043 8.84452H7.34013C7.59876 8.84452 7.68326 9.002 7.74215 9.14155C7.81129 9.30416 8.0648 9.95072 8.4809 10.6779C9.15564 11.8635 9.56918 12.3449 9.90079 12.3449C9.96297 12.3442 10.024 12.3284 10.0788 12.2988C10.5115 12.0581 10.4308 10.5153 10.4116 10.1953C10.4116 10.1351 10.4104 9.50517 10.1889 9.20301C10.0301 8.98407 9.75995 8.90085 9.59607 8.87012C9.6624 8.77859 9.74979 8.70438 9.85086 8.65375C10.1479 8.50523 10.6831 8.48346 11.2144 8.48346H11.5102C12.0863 8.49115 12.2348 8.52828 12.4435 8.58077C12.866 8.68192 12.875 8.95463 12.8379 9.88799C12.8263 10.153 12.8148 10.4526 12.8148 10.806C12.8148 10.8828 12.811 10.9647 12.811 11.0518C12.7982 11.5268 12.7828 12.0658 13.1183 12.2873C13.162 12.3148 13.2126 12.3294 13.2642 12.3296C13.3807 12.3296 13.7315 12.3296 14.6815 10.6997C14.9745 10.1751 15.2291 9.62997 15.4433 9.06857C15.4625 9.03529 15.5189 8.93286 15.5855 8.89317C15.6346 8.86812 15.6891 8.85538 15.7442 8.85604H18.0245C18.2729 8.85604 18.4431 8.89317 18.4752 8.98919C18.5315 9.14155 18.4649 9.60631 17.424 11.016L16.9592 11.6292C16.0156 12.866 16.0156 12.9288 17.0181 13.8673V13.8673Z" fill="black"/>
</svg>
