<svg width="26" height="17" viewBox="0 0 26 17" fill="none" xmlns="http://www.w3.org/2000/svg">
<path d="M24.8742 3.17632C24.7351 2.67986 24.464 2.23038 24.0898 1.87568C23.705 1.51007 23.2334 1.24854 22.7195 1.11578C20.7962 0.608838 13.0906 0.608838 13.0906 0.608838C9.87829 0.57229 6.66674 0.733039 3.4741 1.09018C2.96018 1.23275 2.48946 1.50012 2.10382 1.86851C1.72489 2.2331 1.45042 2.68269 1.30705 3.1753C0.962625 5.03075 0.795282 6.91473 0.807273 8.80185C0.794983 10.6873 0.961916 12.5706 1.30705 14.4284C1.44735 14.919 1.72079 15.3665 2.10074 15.728C2.48069 16.0895 2.95384 16.3507 3.4741 16.4889C5.42301 16.9949 13.0906 16.9949 13.0906 16.9949C16.3071 17.0315 19.5227 16.8707 22.7195 16.5135C23.2334 16.3808 23.705 16.1192 24.0898 15.7536C24.4687 15.3921 24.738 14.9425 24.8732 14.453C25.2266 12.5982 25.3985 10.7135 25.3863 8.8254C25.4129 6.92934 25.2413 5.03569 24.8742 3.1753V3.17632ZM10.6409 12.3085V5.29626L17.052 8.80287L10.6409 12.3085Z" fill="black"/>
</svg>
